# xmcd
#
# Track frame offsets:
#	150
#	19677
#	65202
#
# Disc length: 1129 seconds
#
# Revision: 0
# Processed by: cddbd v1.5.1PL2 Copyright (c) Steve Scherf et al.
# Submitted via: SynApp - FreeCDDB Version: 2.0
#
DISCID=23046703
DTITLE=Dani Kalt - Im Läbenstrom vor Ziit
DYEAR=2000
DGENRE=Ballad
TTITLE0=Dani Kalt - Im Läbensstrom vor Ziit
TTITLE1=Dani Kalt - Meditation (instrumental)
TTITLE2=Dani Kalt - Im Läbensstrom vor Ziit (instrumental)
EXTD=
EXTT0=
EXTT1=
EXTT2=
PLAYORDER=
